<?xml version="1.0" standalone="no"?><!DOCTYPE svg PUBLIC "-//W3C//DTD SVG 1.1//EN" "http://www.w3.org/Graphics/SVG/1.1/DTD/svg11.dtd"><svg t="1559903287176" class="icon" style="" viewBox="0 0 1024 1024" version="1.1" xmlns="http://www.w3.org/2000/svg" p-id="3651" xmlns:xlink="http://www.w3.org/1999/xlink" width="128" height="128"><defs><style type="text/css"></style></defs><path d="M832 256 192 256C153.6 256 128 281.6 128 320l0 384c0 32 25.6 64 64 64l640 0c32 0 64-25.6 64-64L896 320C896 281.6 870.4 256 832 256zM768 320 512 473.6 256 320 768 320zM192 704l0-345.6 307.2 185.6c6.4 0 12.8 6.4 19.2 6.4s12.8 0 19.2-6.4L832 358.4l0 345.6L192 704z" p-id="3652"></path></svg>