<?xml version="1.0" standalone="no"?><!DOCTYPE svg PUBLIC "-//W3C//DTD SVG 1.1//EN" "http://www.w3.org/Graphics/SVG/1.1/DTD/svg11.dtd"><svg t="1557752208235" class="icon" style="" viewBox="0 0 1024 1024" version="1.1" xmlns="http://www.w3.org/2000/svg" p-id="1178" xmlns:xlink="http://www.w3.org/1999/xlink" width="200" height="200"><defs><style type="text/css"></style></defs><path d="M512 768c88.352 0 160 21.504 160 48S600.352 864 512 864s-160-21.504-160-48 71.648-48 160-48z" fill="#8BC72A" p-id="1179"></path><path d="M761.248 672h-188.864c34.336-108.128 83.392-160.704 113.28-214.336 5.728-10.24 10.656-19.168 14.656-26.784C711.648 409.312 736 352.192 736 288c0-123.52-98.944-224-223.008-224S288 164.48 288 288c0 69.536 27.296 126.944 35.648 142.88 4 7.616 8.96 16.544 14.688 26.784 29.888 53.632 78.912 106.208 113.248 214.336h-188.8L80 960h864l-182.752-288zM414.016 288c0-53.024 43.424-96 96.992-96S608 234.976 608 288s-43.424 96-96.992 96-96.992-42.976-96.992-96zM280.352 704h180.512c7.744 29.44 14.4 62.528 19.424 100.256a32 32 0 0 0 63.424 0c5.024-37.728 11.68-70.816 19.392-100.256h180.512l142.176 224H138.208l142.144-224z" fill="#413A4D" p-id="1180"></path><path d="M512 96c106.592 0 192 85.984 192 192 0 49.184-16.992 97.536-32.992 128-32 60.96-128 144-160 384-32-240-128-323.04-160-384-16-30.464-31.008-78.816-31.008-128 0-106.016 85.408-192 192-192z m-0.992 64C582.24 160 640 217.312 640 288s-57.76 128-128.992 128-128.992-57.312-128.992-128 57.728-128 128.992-128z" fill="#E66910" p-id="1181"></path></svg>