<?xml version="1.0" standalone="no"?><!DOCTYPE svg PUBLIC "-//W3C//DTD SVG 1.1//EN" "http://www.w3.org/Graphics/SVG/1.1/DTD/svg11.dtd"><svg t="1554988411433" class="icon" style="" viewBox="0 0 1024 1024" version="1.1" xmlns="http://www.w3.org/2000/svg" p-id="6323" xmlns:xlink="http://www.w3.org/1999/xlink" width="128" height="128"><defs><style type="text/css"></style></defs><path d="M409.290323 475.354839H175.483871c-36.645161 0-66.064516-29.419355-66.064516-66.064516V175.483871c0-36.129032 29.935484-66.064516 66.064516-66.064516h233.806452c36.645161 0 66.064516 29.419355 66.064516 66.064516v233.806452c0 36.645161-29.419355 66.064516-66.064516 66.064516zM409.290323 914.580645H175.483871c-36.645161 0-66.064516-29.419355-66.064516-66.064516v-233.806452c0-36.645161 29.419355-66.064516 66.064516-66.064516h233.806452c36.645161 0 66.064516 29.419355 66.064516 66.064516v233.806452c0 36.129032-29.419355 66.064516-66.064516 66.064516zM848.516129 914.580645h-233.806452c-36.645161 0-66.064516-29.419355-66.064516-66.064516v-233.806452c0-36.645161 29.419355-66.064516 66.064516-66.064516h233.806452c36.645161 0 66.064516 29.419355 66.064516 66.064516v233.806452c0 36.129032-29.935484 66.064516-66.064516 66.064516zM930.580645 246.193548l-152.774193-152.774193c-25.806452-25.806452-67.612903-25.806452-93.419355 0L531.612903 246.193548c-25.806452 25.806452-25.806452 67.612903 0 93.419355l152.774194 152.774194c25.806452 25.806452 67.612903 25.806452 93.419355 0l152.774193-152.774194c25.806452-26.322581 25.806452-68.129032 0-93.419355z m-185.806451 175.483871c-7.225806 7.225806-19.612903 7.225806-26.83871 0l-115.612903-115.612903c-7.225806-7.225806-7.225806-19.612903 0-26.83871l115.612903-115.612903c7.225806-7.225806 19.612903-7.225806 26.83871 0l115.612903 115.612903c7.225806 7.225806 7.225806 19.612903 0 26.83871l-115.612903 115.612903z" p-id="6324"></path></svg>