<?xml version="1.0" standalone="no"?><!DOCTYPE svg PUBLIC "-//W3C//DTD SVG 1.1//EN" "http://www.w3.org/Graphics/SVG/1.1/DTD/svg11.dtd"><svg t="1554988443049" class="icon" style="" viewBox="0 0 1024 1024" version="1.1" xmlns="http://www.w3.org/2000/svg" p-id="7132" xmlns:xlink="http://www.w3.org/1999/xlink" width="128" height="128"><defs><style type="text/css"></style></defs><path d="M675.84 877.568H352.768c-15.872 0-28.672 13.824-28.672 30.208 0 16.896 12.8 30.208 28.672 30.208H675.84c15.872 0 28.672-13.824 28.672-30.208s-12.8-30.208-28.672-30.208zM981.504 93.184H42.496S0 93.184 0 135.68v640c0 42.496 42.496 42.496 42.496 42.496h938.496s42.496 0 42.496-42.496v-640c0.512-42.496-41.984-42.496-41.984-42.496zM335.872 570.88c0 5.12-4.096 9.728-9.728 9.728h-20.992c-3.072 0-6.144-1.536-8.192-4.608L186.88 402.944h-0.512v167.936c0 5.12-4.096 9.728-9.728 9.728h-18.944c-5.12 0-9.728-4.096-9.728-9.728v-230.4c0-5.12 4.096-9.728 9.728-9.728h20.992c3.072 0 6.144 1.536 8.192 4.608L296.96 508.416h0.512V340.48c0-5.12 4.096-9.728 9.728-9.728h18.944c5.12 0 9.728 4.096 9.728 9.728v230.4z m217.6-214.016c0 5.12-4.096 9.728-9.728 9.728h-102.4c-5.12 0-9.728 4.096-9.728 9.728v52.224c0 5.12 4.096 9.728 9.728 9.728h84.992c5.12 0 9.728 4.096 9.728 9.728v14.336c0 5.12-4.096 9.728-9.728 9.728H441.344c-5.12 0-9.728 4.096-9.728 9.728v54.272c0 5.12 4.096 9.728 9.728 9.728h102.4c5.12 0 9.728 4.096 9.728 9.728v16.896c0 5.12-4.096 9.728-9.728 9.728H403.456c-5.12 0-9.728-4.096-9.728-9.728V340.48c0-5.12 4.096-9.728 9.728-9.728h140.288c5.12 0 9.728 4.096 9.728 9.728v16.384z m321.536-14.336L817.664 573.44c-1.024 4.096-5.12 7.168-9.216 7.168h-16.896c-4.096 0-8.192-3.072-9.216-7.168l-45.568-173.056h-0.512l-46.08 173.056c-1.024 4.096-5.12 7.168-9.216 7.168h-16.896c-4.608 0-8.192-3.072-9.216-7.168l-57.856-230.912c-1.536-6.144 3.072-11.776 9.216-11.776h19.968c4.608 0 8.192 3.072 9.216 7.68l37.376 169.984h0.512l46.592-170.496c1.024-4.096 5.12-7.168 9.216-7.168h12.8c4.096 0 8.192 3.072 9.216 7.168l46.592 170.496h0.512l37.888-169.984c1.024-4.608 4.608-7.68 9.216-7.68h19.968c6.656 0 11.264 5.632 9.728 11.776z" p-id="7133"></path></svg>