<?xml version="1.0" standalone="no"?><!DOCTYPE svg PUBLIC "-//W3C//DTD SVG 1.1//EN" "http://www.w3.org/Graphics/SVG/1.1/DTD/svg11.dtd"><svg t="1559903254421" class="icon" style="" viewBox="0 0 1024 1024" version="1.1" xmlns="http://www.w3.org/2000/svg" p-id="3106" xmlns:xlink="http://www.w3.org/1999/xlink" width="128" height="128"><defs><style type="text/css"></style></defs><path d="M973.312 489.472c-33.28-33.28-76.8-51.2-123.392-51.2s-90.112 18.432-123.392 51.2c-36.352 36.352-54.272 77.824-54.272 123.392 0 33.792 7.168 62.464 20.992 86.016L501.76 896c-22.016 22.016-52.224 34.304-82.944 33.28-28.16-1.024-52.736-12.288-70.144-32.256l-0.512-0.512c-21.504-21.504-33.28-48.64-33.28-76.8s11.776-55.808 33.28-76.8l394.24-394.24c81.408-81.408 81.408-208.896 0-290.304-74.752-74.752-209.92-74.752-290.304-1.024L259.584 249.344c-68.608-40.448-158.208-29.696-208.896 27.648-67.584 68.096-67.584 178.176 0.512 246.272 36.352 36.352 77.824 54.272 123.392 54.272s87.04-18.432 123.392-54.272C354.816 465.92 365.056 381.952 325.12 314.368l185.344-185.344c22.016-22.016 52.224-34.304 82.944-33.28 28.16 1.024 52.736 12.288 70.144 32.256l0.512 0.512c22.016 22.016 34.304 52.224 33.28 82.944-1.024 28.16-12.288 52.736-32.256 70.144l-394.752 394.752c-40.448 40.448-60.928 88.064-60.928 141.824 0 56.832 23.04 110.08 61.44 142.336 40.448 39.936 88.064 60.416 141.824 60.416 56.832 0 110.08-23.04 142.336-60.928l203.776-197.632c23.04 13.824 52.224 20.992 86.016 20.992 41.984 0 82.944-15.872 121.856-47.104l0.512-0.512c35.84-32.768 56.32-76.288 57.344-122.88 0.512-45.568-17.408-89.6-51.2-123.392z m-36.352 123.392c0 22.016-9.728 41.984-27.648 57.344l-1.024 1.024c-15.36 15.36-35.84 23.552-58.368 23.552-22.016 0-43.008-8.192-58.368-23.552-16.896-16.896-27.136-38.4-27.136-58.368 0-19.968 9.728-40.96 27.136-58.368 16.896-16.896 38.4-27.136 58.368-27.136 19.968 0 40.96 9.728 58.368 27.136l1.024 1.024c17.92 14.848 27.648 35.328 27.648 57.344zM252.928 399.872c0 25.088-7.168 44.544-20.48 58.368-15.872 15.872-39.936 24.576-64.512 23.552-20.992-1.024-39.424-9.216-50.688-22.528l-1.024-1.024c-16.896-16.896-27.136-38.4-27.136-58.368 0-19.968 9.728-40.96 27.136-58.368 16.896-16.896 38.4-27.136 58.368-27.136s40.96 9.728 58.368 27.136c13.312 13.824 19.968 33.28 19.968 58.368z" p-id="3107"></path></svg>