<?xml version="1.0" standalone="no"?><!DOCTYPE svg PUBLIC "-//W3C//DTD SVG 1.1//EN" "http://www.w3.org/Graphics/SVG/1.1/DTD/svg11.dtd"><svg t="1559903537499" class="icon" style="" viewBox="0 0 1024 1024" version="1.1" xmlns="http://www.w3.org/2000/svg" p-id="9000" xmlns:xlink="http://www.w3.org/1999/xlink" width="128" height="128"><defs><style type="text/css"></style></defs><path d="M864 832H192V160c0-17.7-14.3-32-32-32s-32 14.3-32 32v704c0 17.7 14.3 32 32 32h704c17.7 0 32-14.3 32-32s-14.3-32-32-32z" p-id="9001"></path><path d="M244.1 763.3c16.4 6.6 35-1.4 41.6-17.8l95.6-238.9c0.3-0.8 1.4-3.4 5-3.5 3.7-0.1 4.8 2.4 5.2 3.2l22.8 49.5c11.8 25.7 36.7 41.1 65 40.4 28.2-0.7 52.3-17.5 62.8-43.7l91.6-228.9c0.4-1 1.4-3.5 5.1-3.5h0.1c3.8 0 4.8 2.6 5.2 3.6L802 744.8c4.8 12.8 17 20.8 30 20.8 3.7 0 7.5-0.7 11.2-2 16.5-6.2 24.9-24.7 18.7-41.2L704 301.1c-10.2-27.1-35.4-44.8-64.4-45.1h-0.8c-28.6 0-53.9 17.1-64.6 43.7l-91.6 228.9c-0.3 0.8-1.4 3.4-5 3.5-3.7 0.1-4.8-2.4-5.2-3.2l-22.8-49.5c-11.8-25.7-36.8-41.1-65-40.4-28.2 0.7-52.3 17.5-62.8 43.7l-95.6 238.9c-6.5 16.5 1.5 35.1 17.9 41.7z" p-id="9002"></path></svg>