<?xml version="1.0" standalone="no"?><!DOCTYPE svg PUBLIC "-//W3C//DTD SVG 1.1//EN" "http://www.w3.org/Graphics/SVG/1.1/DTD/svg11.dtd"><svg t="1559903416158" class="icon" style="" viewBox="0 0 1024 1024" version="1.1" xmlns="http://www.w3.org/2000/svg" p-id="6494" xmlns:xlink="http://www.w3.org/1999/xlink" width="128" height="128"><defs><style type="text/css"></style></defs><path d="M725.333333 938.666667c-25.6 0-42.666667-17.066667-42.666666-42.666667v-85.333333c0-72.533333-55.466667-128-128-128H213.333333c-72.533333 0-128 55.466667-128 128v85.333333c0 25.6-17.066667 42.666667-42.666666 42.666667s-42.666667-17.066667-42.666667-42.666667v-85.333333c0-119.466667 93.866667-213.333333 213.333333-213.333334h341.333334c119.466667 0 213.333333 93.866667 213.333333 213.333334v85.333333c0 25.6-17.066667 42.666667-42.666667 42.666667zM384 512c-119.466667 0-213.333333-93.866667-213.333333-213.333333s93.866667-213.333333 213.333333-213.333334 213.333333 93.866667 213.333333 213.333334-93.866667 213.333333-213.333333 213.333333z m0-341.333333C311.466667 170.666667 256 226.133333 256 298.666667s55.466667 128 128 128 128-55.466667 128-128-55.466667-128-128-128zM981.333333 938.666667c-25.6 0-42.666667-17.066667-42.666666-42.666667v-85.333333c0-59.733333-38.4-110.933333-98.133334-123.733334-21.333333-4.266667-34.133333-29.866667-29.866666-51.2 4.266667-21.333333 29.866667-34.133333 51.2-29.866666 93.866667 25.6 157.866667 110.933333 157.866666 209.066666v85.333334c4.266667 21.333333-12.8 38.4-38.4 38.4zM682.666667 507.733333c-17.066667 0-34.133333-12.8-42.666667-29.866666-8.533333-21.333333 8.533333-46.933333 29.866667-51.2 46.933333-12.8 81.066667-51.2 93.866666-93.866667 17.066667-68.266667-25.6-140.8-93.866666-157.866667-21.333333-4.266667-38.4-29.866667-29.866667-51.2 4.266667-21.333333 29.866667-38.4 51.2-29.866666 110.933333 25.6 183.466667 145.066667 153.6 260.266666-21.333333 76.8-81.066667 132.266667-153.6 153.6H682.666667z" p-id="6495"></path></svg>